<?xml version="1.0" encoding="UTF-8"?>
<svg id="Layer_1" data-name="Layer 1" xmlns="http://www.w3.org/2000/svg" xmlns:xlink="http://www.w3.org/1999/xlink" viewBox="0 0 3000 939.13">
  <defs>
    <style>
      .cls-1 {
        fill: url(#linear-gradient);
      }

      .cls-1, .cls-2, .cls-3 {
        stroke-width: 0px;
      }

      .cls-2 {
        fill: #fff;
      }

      .cls-3 {
        fill: #0a193b;
      }
    </style>
    <linearGradient id="linear-gradient" x1="47.26" y1="466.77" x2="1186.06" y2="466.77" gradientUnits="userSpaceOnUse">
      <stop offset="0" stop-color="#4e28a3"/>
      <stop offset="1" stop-color="#a78af4"/>
    </linearGradient>
  </defs>
  <rect class="cls-3" width="3000" height="939.13"/>
  <g>
    <polygon class="cls-1" points="866.25 93.31 740.29 311.45 1016.58 789.98 880.75 789.98 478.52 93.31 352.57 311.45 628.85 789.98 493.03 789.98 284.65 429.08 47.26 840.24 328.18 840.24 464.01 840.24 686.89 840.24 769.31 697.48 851.73 840.24 1074.62 840.24 1186.06 647.22 866.25 93.31"/>
    <g>
      <path class="cls-2" d="m1312.27,243.06h59.92v275.98h-59.92V243.06Zm59.92,0l113.15,192.79-2.36,41.4h-41l-116.3-197.92-13.41-36.27h59.92Zm227.09,36.27l-116.3,197.92h-41l-2.76-41.4,113.15-192.79h60.32l-13.41,36.27Zm-46.92,239.71V243.06h60.32v275.98h-60.32Z"/>
      <path class="cls-2" d="m1643.63,377.69c4.86-12.74,11.43-23.72,19.71-32.93,8.29-9.19,17.87-16.29,28.78-21.28,10.91-4.99,22.28-7.5,34.11-7.5,9.99,0,18.99,1.52,27,4.54,8.01,3.02,14.92,7.43,20.71,13.21,5.78,5.78,10.31,12.94,13.59,21.48,3.28,8.55,4.93,18.33,4.93,29.38v73.33c0,10.51-1.65,19.91-4.93,28.18-3.28,8.29-7.95,15.31-13.99,21.09-6.05,5.79-13.08,10.2-21.09,13.22-8.02,3.01-16.75,4.53-26.21,4.53-11.83,0-23.2-2.51-34.11-7.49-10.91-4.99-20.5-12.09-28.78-21.29-8.28-9.2-14.85-20.17-19.71-32.93-4.87-12.74-7.29-27-7.29-42.77s2.42-30.02,7.29-42.77Zm55.19,65.64c2.23,6.84,5.33,12.68,9.27,17.55,3.93,4.87,8.73,8.61,14.38,11.23,5.65,2.63,11.77,3.94,18.33,3.94,7.1,0,13.41-1.31,18.92-3.94,5.53-2.62,10.26-6.37,14.2-11.23,3.93-4.87,6.95-10.71,9.06-17.55,2.1-6.83,3.16-14.45,3.16-22.87s-1.06-16.03-3.16-22.87c-2.11-6.83-5.13-12.68-9.06-17.55-3.94-4.86-8.67-8.6-14.2-11.23-5.52-2.62-11.82-3.94-18.92-3.94-6.57,0-12.68,1.32-18.33,3.94-5.65,2.63-10.45,6.38-14.38,11.23-3.94,4.87-7.04,10.72-9.27,17.55-2.23,6.84-3.35,14.45-3.35,22.87s1.11,16.04,3.35,22.87Zm87.33-121.43h57.17v197.13h-57.17v-197.13Z"/>
      <path class="cls-2" d="m1854.36,321.9h59.14l69.78,173.08v24.05h-44.55l-84.37-197.13Zm84.37,197.13v-24.05l70.18-173.08h59.14l-84.37,197.13h-44.95Z"/>
      <path class="cls-2" d="m2136.06,517.85c-13.02-4.73-24.25-11.56-33.71-20.5-9.46-8.94-16.9-19.85-22.28-32.73-5.39-12.88-8.08-27.6-8.08-44.16s2.22-30.02,6.7-42.77c4.46-12.74,10.77-23.72,18.92-32.93,8.14-9.19,18-16.29,29.57-21.28,11.56-4.99,24.58-7.5,39.03-7.5s28.12,2.51,40.22,7.5c12.08,4.99,22.33,11.89,30.75,20.69,8.4,8.81,14.98,19.32,19.71,31.54,4.73,12.22,7.1,25.7,7.1,40.41v18.92h-53.23v-23.26c0-9.46-1.05-17.47-3.15-24.05-2.11-6.57-5-11.96-8.67-16.16-3.68-4.2-7.95-7.35-12.82-9.46-4.87-2.1-10.05-3.15-15.58-3.15-10.51,0-19.71,4.53-27.6,13.59-7.88,9.07-11.82,23.33-11.82,42.78,0,10.51,1.24,19.58,3.74,27.2,2.5,7.63,5.92,13.87,10.25,18.72,4.34,4.87,9.52,8.55,15.58,11.04,6.04,2.5,12.48,3.74,19.32,3.74,8.93,0,17.34-1.64,25.23-4.93,7.89-3.28,14.98-9,21.29-17.15l39.43,28.78c-9.46,14.19-20.97,24.78-34.5,31.74-13.54,6.95-31.34,10.45-53.42,10.45-14.99,0-28.98-2.37-41.99-7.1Zm-47.9-117.88h160.85v35.09h-160.85v-35.09Z"/>
      <path class="cls-2" d="m2343.63,519.03h-56.77v-197.13h56.77v29.97c5.52-11.56,13.14-20.43,22.87-26.61,9.72-6.18,21.42-9.27,35.09-9.27,6.05,0,11.89.53,17.55,1.58,5.65,1.05,10.85,2.76,15.58,5.12l-15.78,57.56c-2.62-2.36-6.3-4.47-11.03-6.3-4.73-1.84-10.38-2.76-16.95-2.76-6.05,0-11.91,1.05-17.55,3.15-5.65,2.11-10.58,5.2-14.79,9.27-4.21,4.08-7.69,8.86-10.45,14.39-2.76,5.52-4.27,11.7-4.53,18.52v102.51Z"/>
      <rect class="cls-2" x="2454.4" y="321.9" width="56.78" height="197.13"/>
      <rect class="cls-2" x="2453.89" y="239.47" width="56.78" height="48.53"/>
      <path class="cls-2" d="m2726.44,482.76c-9.2,14.19-20.23,24.78-33.11,31.74-12.88,6.95-29.83,10.45-50.86,10.45-15.51,0-29.71-2.51-42.58-7.49-12.88-4.99-23.85-12.09-32.93-21.29-9.06-9.2-16.16-20.17-21.28-32.93-5.13-12.74-7.69-27-7.69-42.77s2.49-30.88,7.49-43.76c4.98-12.88,11.96-23.85,20.89-32.93,8.94-9.06,19.57-15.96,31.93-20.69,12.36-4.73,25.64-7.1,39.83-7.1,18.92,0,35.41,3.88,49.48,11.63,14.06,7.76,24.9,18.07,32.53,30.95l-39.82,25.62c-3.69-6.04-8.95-10.77-15.78-14.19-6.84-3.41-14.19-5.13-22.08-5.13-5.78,0-11.37.86-16.75,2.57-5.39,1.71-10.25,4.59-14.59,8.67-4.33,4.07-7.75,9.46-10.25,16.16-2.51,6.7-3.74,15.18-3.74,25.43,0,8.67.91,16.63,2.76,23.85,1.84,7.24,4.66,13.41,8.48,18.53,3.81,5.12,8.87,9.06,15.18,11.82,6.3,2.76,13.8,4.14,22.48,4.14,7.62,0,14.98-1.38,22.07-4.14,7.1-2.76,13.41-8.73,18.93-17.94l39.42,28.78Z"/>
      <path class="cls-2" d="m2750.09,519.03V223.34h57.17v295.7h-57.17Zm193.18-197.13l-136.01,139.97h-6.31v-61.9l78.46-78.07h63.87Zm-72.93,63.08l82.4,134.05h-61.12l-63.47-97.38,42.19-36.67Z"/>
      <g>
        <path class="cls-2" d="m1312.27,563.93h59.92v275.98h-59.92v-275.98Zm35.87,226.3h154.55v49.68h-154.55v-49.68Z"/>
        <path class="cls-2" d="m1536.4,698.57c4.86-12.74,11.43-23.72,19.71-32.93,8.29-9.19,17.87-16.29,28.78-21.28,10.91-4.99,22.28-7.5,34.11-7.5,9.99,0,18.99,1.52,27,4.54,8.01,3.02,14.92,7.43,20.71,13.21,5.78,5.78,10.31,12.94,13.59,21.48,3.28,8.55,4.93,18.33,4.93,29.38v73.33c0,10.51-1.65,19.91-4.93,28.18-3.28,8.29-7.95,15.31-13.99,21.09-6.05,5.79-13.08,10.2-21.09,13.22-8.02,3.01-16.75,4.53-26.21,4.53-11.83,0-23.2-2.51-34.11-7.49-10.91-4.99-20.5-12.09-28.78-21.29-8.28-9.2-14.85-20.17-19.71-32.93-4.87-12.74-7.29-27-7.29-42.77s2.42-30.02,7.29-42.77Zm55.19,65.64c2.23,6.84,5.33,12.68,9.27,17.55,3.93,4.87,8.73,8.61,14.38,11.23,5.65,2.63,11.77,3.94,18.33,3.94,7.1,0,13.41-1.31,18.92-3.94,5.53-2.62,10.26-6.37,14.2-11.23,3.93-4.87,6.95-10.71,9.06-17.55,2.1-6.83,3.16-14.45,3.16-22.87s-1.06-16.03-3.16-22.87c-2.11-6.83-5.13-12.68-9.06-17.55-3.94-4.86-8.67-8.6-14.2-11.23-5.52-2.62-11.82-3.94-18.92-3.94-6.57,0-12.68,1.32-18.33,3.94-5.65,2.63-10.45,6.38-14.38,11.23-3.94,4.87-7.04,10.72-9.27,17.55-2.23,6.84-3.35,14.45-3.35,22.87s1.11,16.04,3.35,22.87Zm87.33-121.43h57.17v197.13h-57.17v-197.13Z"/>
        <path class="cls-2" d="m1786.86,839.91v-295.7h57.17v295.7h-57.17Zm199.69-55.79c-4.87,12.75-11.43,23.73-19.72,32.93-8.28,9.2-17.87,16.3-28.78,21.29-10.91,4.98-22.27,7.49-34.1,7.49-9.46,0-18.2-1.52-26.21-4.53-8.02-3.02-15.05-7.36-21.09-13.02-6.05-5.64-10.72-12.62-14-20.89-3.28-8.28-4.93-17.55-4.93-27.8v-72.54c0-11.03,1.65-20.89,4.93-29.57,3.28-8.67,7.82-16.03,13.6-22.08,5.78-6.04,12.74-10.65,20.89-13.79,8.15-3.16,17.09-4.74,26.81-4.74,11.83,0,23.19,2.51,34.1,7.5,10.91,4.99,20.51,12.09,28.78,21.28,8.29,9.21,14.85,20.18,19.72,32.93,4.86,12.75,7.29,27.01,7.29,42.77s-2.43,30.03-7.29,42.77Zm-55.2-65.64c-2.23-6.83-5.32-12.68-9.26-17.55-3.94-4.86-8.67-8.6-14.19-11.23-5.52-2.62-11.83-3.94-18.92-3.94-6.58,0-12.69,1.32-18.33,3.94-5.65,2.63-10.45,6.38-14.39,11.23-3.94,4.87-6.96,10.72-9.07,17.55-2.1,6.84-3.15,14.45-3.15,22.87s1.05,16.04,3.15,22.87c2.11,6.84,5.13,12.68,9.07,17.55,3.94,4.87,8.74,8.61,14.39,11.23,5.64,2.63,11.76,3.94,18.33,3.94,7.09,0,13.41-1.31,18.92-3.94,5.52-2.62,10.25-6.37,14.19-11.23,3.94-4.87,7.03-10.71,9.26-17.55,2.23-6.83,3.36-14.45,3.36-22.87s-1.12-16.03-3.36-22.87Z"/>
        <path class="cls-2" d="m2047.55,741.14c-11.82-9.59-17.74-22.93-17.74-40.02,0-9.46,1.84-18.06,5.52-25.82,3.68-7.75,9-14.45,15.96-20.11,6.96-5.64,15.44-10.05,25.44-13.21,9.99-3.16,21.42-4.73,34.3-4.73,15.77,0,30.42,2.23,43.96,6.7,13.53,4.47,24.38,10.78,32.53,18.92l-28.39,31.94c-5.26-3.94-12.28-7.35-21.09-10.25-8.8-2.89-18.46-4.34-28.97-4.34-5.27,0-9.8.4-13.6,1.19-3.82.79-6.96,1.77-9.46,2.96-2.51,1.19-4.34,2.63-5.52,4.33-1.19,1.72-1.77,3.62-1.77,5.72,0,2.63.85,4.87,2.56,6.7,1.71,1.85,4.33,3.56,7.89,5.13,3.55,1.57,8.01,3.09,13.41,4.53,5.38,1.45,11.76,3.09,19.12,4.93,13.13,3.68,24.44,7.56,33.9,11.63,9.46,4.08,17.21,8.61,23.26,13.6,6.04,4.99,10.45,10.51,13.21,16.55,2.76,6.05,4.14,12.88,4.14,20.51,0,9.72-2.05,18.72-6.12,27.01-4.08,8.28-9.86,15.44-17.35,21.48-7.49,6.05-16.56,10.78-27.2,14.19-10.65,3.42-22.68,5.13-36.08,5.13-16.82,0-32.66-2.63-47.5-7.89-14.85-5.26-28.72-13.93-41.59-26.02l32.33-31.14c3.94,3.94,8.28,7.23,13.01,9.86,4.73,2.62,9.52,4.79,14.39,6.5,4.86,1.71,9.72,2.89,14.59,3.55,4.86.66,9.52.99,13.99.99,4.21,0,8.54-.33,13.02-.99,4.46-.65,8.67-1.64,12.61-2.96,3.94-1.31,7.1-2.96,9.46-4.93,2.37-1.97,3.56-4.39,3.56-7.29s-1.19-5.32-3.56-7.29c-2.36-1.97-5.72-3.76-10.05-5.33-4.33-1.57-9.6-3.02-15.78-4.33-6.18-1.31-13.07-2.89-20.69-4.73-21.29-5.53-37.84-13.08-49.68-22.68Z"/>
      </g>
    </g>
  </g>
</svg>